<mxfile host="app.diagrams.net" modified="2023-08-11T06:34:11.468Z" agent="Mozilla/5.0 (Macintosh; Intel Mac OS X 10_15_7) AppleWebKit/537.36 (KHTML, like Gecko) Chrome/115.0.0.0 Safari/537.36" version="21.6.8" etag="h4O8-mPNpne2g1UozUSO" type="github">
  <diagram name="Page-1" id="3EXvhOtsQWCskvP54dUn">
    <mxGraphModel>
      <root>
        <mxCell id="0" />
        <mxCell id="1" parent="0" />
      </root>
    </mxGraphModel>
  </diagram>
</mxfile>
